<svg
  xmlns="http://www.w3.org/2000/svg"
  width="84"
  height="84"
  fill="none"
  viewBox="0 0 84 84"
>
  <path
    fill="#F4D3C3"
    d="M68.39 30.88s-14.65 3.19-14.57 16.3l.7 5.2S44 57.17 42.62 67.3c-1.37 10.13.28 16.43.28 16.43s29.22-6.69 32.75-27.82c0 0 1.57-19.44-7.26-25.03Z"
  />
  <path
    fill="#E19793"
    d="m75.08 55.87-14.59 3 14.36-3.97c.65-.17.9.83.23.97Zm-7.53-24.35c3 4.63 5.45 10.06 4.95 15.68.05-1.38-.08-2.76-.37-4.1-.94-3.99-2.93-7.72-5.38-10.97-.43-.53.41-1.17.8-.6v-.01Zm-4.09 1.65c2.73 4.03 4.98 8.86 4.4 13.82.22-3.67-1.24-7.19-3.11-10.27-.63-1.03-1.33-2.04-2.08-2.95-.42-.52.4-1.16.79-.61v.01Zm-3.93 2.58c2.73 4.03 4.98 8.86 4.4 13.82.22-3.67-1.24-7.19-3.11-10.27-.63-1.03-1.33-2.04-2.08-2.95-.42-.52.4-1.16.79-.61v.01Zm-4.73 17.2c1.49 5.13-1.53 10.93-5.74 13.88-.04.03-.1-.02-.07-.07.34-.58.72-1.1 1.11-1.62 1.76-2.64 3.91-5.14 4.55-8.34.27-1.24.38-2.57.06-3.82-.02-.06.08-.09.09-.03Z"
  />
  <path
    fill="#F4D3C3"
    d="M15.19 31.35s14.9 2.66 15.31 15.88l-.51 5.27s10.79 4.44 12.56 14.6c1.77 10.16.33 16.58.33 16.58S13.16 78.04 8.81 56.86c0 0-2.31-19.54 6.38-25.51Z"
  />
  <path
    fill="#E19793"
    d="m9.46 55.79 14.63 3.46-14.83-2.48c-.66-.12-.46-1.13.2-.98Zm7.43-23.25c-3.06 4.5-5.61 9.85-5.23 15.42a16.781 16.781 0 0 1-.03-4.19c.36-2.79 1.26-5.5 2.43-8.06.59-1.28 1.24-2.53 2-3.75.15-.23.46-.3.69-.16.25.15.31.5.13.73l.01.01Zm4.16 1.52c-2.8 3.88-5.16 8.6-4.72 13.51-.2-1.22-.22-2.46-.1-3.7.47-3.73 1.99-7.24 4.01-10.4.38-.57 1.24.05.81.59Zm4.06 2.46c-2.8 3.88-5.16 8.6-4.72 13.51-.2-1.22-.22-2.46-.1-3.7.47-3.73 1.99-7.24 4.01-10.4.38-.57 1.24.05.81.59Zm4.7 16.61c-.85 4.7 2.48 8.59 5.11 12.08.41.51.81 1.03 1.18 1.59.03.04-.02.1-.07.07-3.44-2.14-5.73-5.86-6.5-9.8-.2-1.33-.23-2.7.19-3.98.02-.06.12-.03.09.03v.01Z"
  />
  <path
    fill="#78A576"
    d="M42.2.53c-1.52.93-15.46 9.71-15.48 25.39-.02 15.65 13.84 24.75 15.36 25.72 1.63-1 15.14-9.57 15.46-24.86C57.88 10.87 43.67 1.47 42.19.53h.01Z"
  />
  <path
    fill="#87B785"
    d="M42.2.53c.21 2.13.33 4.26.49 6.39l-.05 19.17c0 4.21-.03 15.09-.04 19.17-.17 2.13-.31 4.26-.51 6.39-.2-2.13-.32-4.26-.49-6.39 0-4.02.03-15 .04-19.17 0-4.21.03-15.09.04-19.17.17-2.13.3-4.26.52-6.39Z"
  />
  <path fill="#87B785" d="M41.68 24.29 29.76 13.7l13.15 9.02-1.23 1.57Z" />
  <path
    fill="#87B785"
    d="m41.38 22.84 13.18-8.43-12 10.04-1.18-1.61Zm.17 11.65L29.64 23.9l13.15 9.02-1.24 1.57Z"
  />
  <path
    fill="#87B785"
    d="m41.25 33.04 13.18-8.43-12 10.04-1.18-1.61Zm.81 10.14L29.83 32.97l12.84 9.42-.61.79Z"
  />
  <path fill="#87B785" d="m41.55 42.31 12.88-8.83-12.29 9.64-.59-.81Z" />
</svg>
